<mxfile host="app.diagrams.net" modified="2020-08-20T10:15:52.183Z" agent="5.0 (Windows NT 10.0; Win64; x64) AppleWebKit/537.36 (KHTML, like Gecko) Chrome/84.0.4147.125 Safari/537.36" etag="_BO9hOt23qOtFbkIuJl5" version="13.6.3" type="github">
  <diagram name="Page-1" id="55a83fd1-7818-8e21-69c5-c3457e3827bb">
    <mxGraphModel dx="725" dy="496" grid="1" gridSize="10" guides="1" tooltips="1" connect="1" arrows="1" fold="1" page="1" pageScale="1" pageWidth="1100" pageHeight="850" background="#ffffff" math="0" shadow="0">
      <root>
        <mxCell id="0" />
        <mxCell id="1" parent="0" />
        <mxCell id="4r5yGOIJ-KLtEA-MK6Sy-3" value="" style="rounded=1;whiteSpace=wrap;html=1;fillColor=#fff2cc;strokeColor=#d6b656;" vertex="1" parent="1">
          <mxGeometry x="930" y="400" width="500" height="380" as="geometry" />
        </mxCell>
        <mxCell id="69ecfefc5c41e42c-1" value="" style="image;html=1;labelBackgroundColor=#ffffff;image=img/lib/clip_art/networking/Wireless_Router_128x128.png;rounded=1;shadow=0;comic=0;strokeWidth=2;fontSize=22" parent="1" vertex="1">
          <mxGeometry x="470" y="465" width="80" height="80" as="geometry" />
        </mxCell>
        <mxCell id="69ecfefc5c41e42c-2" value="Internet" style="image;html=1;labelBackgroundColor=#ffffff;image=img/lib/clip_art/networking/Cloud_128x128.png;rounded=1;shadow=0;comic=0;strokeWidth=2;fontSize=22;labelPosition=center;verticalLabelPosition=top;align=center;verticalAlign=bottom;" parent="1" vertex="1">
          <mxGeometry x="470" y="140" width="80" height="80" as="geometry" />
        </mxCell>
        <mxCell id="69ecfefc5c41e42c-19" style="edgeStyle=none;rounded=0;html=1;labelBackgroundColor=none;endArrow=none;strokeWidth=2;fontFamily=Verdana;fontSize=22" parent="1" source="69ecfefc5c41e42c-1" target="69ecfefc5c41e42c-2" edge="1">
          <mxGeometry relative="1" as="geometry">
            <mxPoint x="510" y="290" as="sourcePoint" />
          </mxGeometry>
        </mxCell>
        <mxCell id="69ecfefc5c41e42c-4" value="Tablet" style="image;html=1;labelBackgroundColor=#ffffff;image=img/lib/clip_art/computers/iPad_128x128.png;rounded=1;shadow=0;comic=0;strokeWidth=2;fontSize=22" parent="1" vertex="1">
          <mxGeometry x="500" y="700" width="80" height="80" as="geometry" />
        </mxCell>
        <mxCell id="69ecfefc5c41e42c-5" value="PC" style="image;html=1;labelBackgroundColor=#ffffff;image=img/lib/clip_art/computers/Monitor_Tower_128x128.png;rounded=1;shadow=0;comic=0;strokeWidth=2;fontSize=22" parent="1" vertex="1">
          <mxGeometry x="150" y="640" width="80" height="80" as="geometry" />
        </mxCell>
        <mxCell id="69ecfefc5c41e42c-6" value="Printer" style="image;html=1;labelBackgroundColor=#ffffff;image=img/lib/clip_art/computers/Printer_128x128.png;rounded=1;shadow=0;comic=0;strokeWidth=2;fontSize=22" parent="1" vertex="1">
          <mxGeometry x="150" y="440" width="80" height="80" as="geometry" />
        </mxCell>
        <mxCell id="69ecfefc5c41e42c-7" value="PC" style="image;html=1;labelBackgroundColor=#ffffff;image=img/lib/clip_art/computers/Workstation_128x128.png;rounded=1;shadow=0;comic=0;strokeWidth=2;fontSize=22" parent="1" vertex="1">
          <mxGeometry x="730" y="670" width="80" height="80" as="geometry" />
        </mxCell>
        <mxCell id="69ecfefc5c41e42c-8" value="Mobile" style="image;html=1;labelBackgroundColor=#ffffff;image=img/lib/clip_art/telecommunication/iPhone_128x128.png;rounded=1;shadow=0;comic=0;strokeWidth=2;fontSize=22" parent="1" vertex="1">
          <mxGeometry x="800" y="550" width="80" height="80" as="geometry" />
        </mxCell>
        <mxCell id="69ecfefc5c41e42c-9" value="会社支給PC" style="image;html=1;labelBackgroundColor=#ffffff;image=img/lib/clip_art/computers/Netbook_128x128.png;rounded=1;shadow=0;comic=0;strokeColor=#000000;strokeWidth=2;fillColor=#FFFFFF;fontSize=22;fontColor=#000000;" parent="1" vertex="1">
          <mxGeometry x="1300" y="610" width="80" height="80" as="geometry" />
        </mxCell>
        <mxCell id="69ecfefc5c41e42c-10" value="Laptop" style="image;html=1;labelBackgroundColor=#ffffff;image=img/lib/clip_art/computers/Netbook_128x128.png;rounded=1;shadow=0;comic=0;strokeWidth=2;fontSize=22" parent="1" vertex="1">
          <mxGeometry x="320" y="710" width="80" height="80" as="geometry" />
        </mxCell>
        <mxCell id="69ecfefc5c41e42c-11" value="" style="html=1;fillColor=#CCCCCC;strokeColor=#6881B3;gradientColor=none;gradientDirection=north;strokeWidth=2;shape=mxgraph.networks.comm_link_edge;html=1;labelBackgroundColor=none;endArrow=none;fontFamily=Verdana;fontSize=22;fontColor=#000000;" parent="1" source="69ecfefc5c41e42c-6" target="69ecfefc5c41e42c-1" edge="1">
          <mxGeometry width="100" height="100" relative="1" as="geometry">
            <mxPoint x="300" y="390" as="sourcePoint" />
            <mxPoint x="400" y="290" as="targetPoint" />
          </mxGeometry>
        </mxCell>
        <mxCell id="69ecfefc5c41e42c-12" value="" style="html=1;fillColor=#CCCCCC;strokeColor=#6881B3;gradientColor=none;gradientDirection=north;strokeWidth=2;shape=mxgraph.networks.comm_link_edge;html=1;labelBackgroundColor=none;endArrow=none;fontFamily=Verdana;fontSize=22;fontColor=#000000;fontStyle=1" parent="1" source="69ecfefc5c41e42c-5" target="69ecfefc5c41e42c-1" edge="1">
          <mxGeometry width="100" height="100" relative="1" as="geometry">
            <mxPoint x="320" y="481.9565217391305" as="sourcePoint" />
            <mxPoint x="470" y="508.0434782608695" as="targetPoint" />
          </mxGeometry>
        </mxCell>
        <mxCell id="69ecfefc5c41e42c-13" value="" style="html=1;fillColor=#CCCCCC;strokeColor=#6881B3;gradientColor=none;gradientDirection=north;strokeWidth=2;shape=mxgraph.networks.comm_link_edge;html=1;labelBackgroundColor=none;endArrow=none;fontFamily=Verdana;fontSize=22;fontColor=#000000;" parent="1" source="69ecfefc5c41e42c-10" target="69ecfefc5c41e42c-1" edge="1">
          <mxGeometry width="100" height="100" relative="1" as="geometry">
            <mxPoint x="330" y="491.9565217391305" as="sourcePoint" />
            <mxPoint x="480" y="518.0434782608695" as="targetPoint" />
          </mxGeometry>
        </mxCell>
        <mxCell id="69ecfefc5c41e42c-14" value="" style="html=1;fillColor=#CCCCCC;strokeColor=#6881B3;gradientColor=none;gradientDirection=north;strokeWidth=2;shape=mxgraph.networks.comm_link_edge;html=1;labelBackgroundColor=none;endArrow=none;fontFamily=Verdana;fontSize=22;fontColor=#000000;" parent="1" source="69ecfefc5c41e42c-4" target="69ecfefc5c41e42c-1" edge="1">
          <mxGeometry width="100" height="100" relative="1" as="geometry">
            <mxPoint x="340" y="501.9565217391305" as="sourcePoint" />
            <mxPoint x="490" y="528.0434782608695" as="targetPoint" />
          </mxGeometry>
        </mxCell>
        <mxCell id="69ecfefc5c41e42c-15" value="" style="html=1;fillColor=#CCCCCC;strokeColor=#6881B3;gradientColor=none;gradientDirection=north;strokeWidth=2;shape=mxgraph.networks.comm_link_edge;html=1;labelBackgroundColor=none;endArrow=none;fontFamily=Verdana;fontSize=22;fontColor=#000000;" parent="1" source="69ecfefc5c41e42c-7" target="69ecfefc5c41e42c-1" edge="1">
          <mxGeometry width="100" height="100" relative="1" as="geometry">
            <mxPoint x="350" y="511.9565217391305" as="sourcePoint" />
            <mxPoint x="500" y="538.0434782608695" as="targetPoint" />
          </mxGeometry>
        </mxCell>
        <mxCell id="69ecfefc5c41e42c-16" value="" style="html=1;fillColor=#CCCCCC;strokeColor=#6881B3;gradientColor=none;gradientDirection=north;strokeWidth=2;shape=mxgraph.networks.comm_link_edge;html=1;labelBackgroundColor=none;endArrow=none;fontFamily=Verdana;fontSize=22;fontColor=#000000;" parent="1" source="69ecfefc5c41e42c-8" target="69ecfefc5c41e42c-1" edge="1">
          <mxGeometry width="100" height="100" relative="1" as="geometry">
            <mxPoint x="360" y="521.9565217391305" as="sourcePoint" />
            <mxPoint x="510" y="548.0434782608695" as="targetPoint" />
          </mxGeometry>
        </mxCell>
        <mxCell id="69ecfefc5c41e42c-17" value="" style="html=1;fillColor=#CCCCCC;strokeColor=#6881B3;gradientColor=none;gradientDirection=north;strokeWidth=2;shape=mxgraph.networks.comm_link_edge;html=1;labelBackgroundColor=none;endArrow=none;fontFamily=Verdana;fontSize=22;fontColor=#000000;entryX=1;entryY=0.75;entryDx=0;entryDy=0;" parent="1" source="69ecfefc5c41e42c-9" target="4r5yGOIJ-KLtEA-MK6Sy-2" edge="1">
          <mxGeometry width="100" height="100" relative="1" as="geometry">
            <mxPoint x="370" y="531.9565217391305" as="sourcePoint" />
            <mxPoint x="520" y="558.0434782608695" as="targetPoint" />
          </mxGeometry>
        </mxCell>
        <mxCell id="4r5yGOIJ-KLtEA-MK6Sy-1" style="edgeStyle=none;rounded=0;html=1;labelBackgroundColor=none;endArrow=none;strokeWidth=2;fontFamily=Verdana;fontSize=22;entryX=1;entryY=0.5;entryDx=0;entryDy=0;exitX=0.5;exitY=0;exitDx=0;exitDy=0;" edge="1" parent="1" source="4r5yGOIJ-KLtEA-MK6Sy-2" target="69ecfefc5c41e42c-2">
          <mxGeometry relative="1" as="geometry">
            <mxPoint x="880" y="180" as="sourcePoint" />
            <mxPoint x="520" y="230" as="targetPoint" />
            <Array as="points">
              <mxPoint x="1060" y="180" />
            </Array>
          </mxGeometry>
        </mxCell>
        <mxCell id="4r5yGOIJ-KLtEA-MK6Sy-2" value="" style="image;html=1;labelBackgroundColor=#ffffff;image=img/lib/clip_art/networking/Wireless_Router_128x128.png;rounded=1;shadow=0;comic=0;strokeWidth=2;fontSize=22" vertex="1" parent="1">
          <mxGeometry x="1020" y="460" width="80" height="80" as="geometry" />
        </mxCell>
        <mxCell id="4r5yGOIJ-KLtEA-MK6Sy-4" value="自宅" style="rounded=0;whiteSpace=wrap;html=1;strokeColor=none;fillColor=none;fontStyle=1;fontSize=16;" vertex="1" parent="1">
          <mxGeometry x="940" y="400" width="120" height="60" as="geometry" />
        </mxCell>
        <mxCell id="4r5yGOIJ-KLtEA-MK6Sy-5" value="" style="fontColor=#0066CC;verticalAlign=top;verticalLabelPosition=bottom;labelPosition=center;align=center;html=1;outlineConnect=0;fillColor=#CCCCCC;strokeColor=#6881B3;gradientColor=none;gradientDirection=north;strokeWidth=2;shape=mxgraph.networks.switch;" vertex="1" parent="1">
          <mxGeometry x="1510" y="564" width="100" height="30" as="geometry" />
        </mxCell>
        <mxCell id="4r5yGOIJ-KLtEA-MK6Sy-40" value="" style="edgeStyle=orthogonalEdgeStyle;rounded=0;orthogonalLoop=1;jettySize=auto;html=1;fontSize=16;strokeWidth=3;" edge="1" parent="1" source="4r5yGOIJ-KLtEA-MK6Sy-9" target="4r5yGOIJ-KLtEA-MK6Sy-5">
          <mxGeometry relative="1" as="geometry" />
        </mxCell>
        <mxCell id="4r5yGOIJ-KLtEA-MK6Sy-9" value="" style="pointerEvents=1;shadow=0;dashed=0;html=1;strokeColor=none;fillColor=#005F4B;labelPosition=center;verticalLabelPosition=bottom;verticalAlign=top;align=center;outlineConnect=0;shape=mxgraph.veeam2.usb_drive;fontSize=16;direction=west;" vertex="1" parent="1">
          <mxGeometry x="1402" y="620" width="47" height="20" as="geometry" />
        </mxCell>
        <mxCell id="4r5yGOIJ-KLtEA-MK6Sy-39" value="" style="group" vertex="1" connectable="0" parent="1">
          <mxGeometry x="1402" y="650" width="40" height="30" as="geometry" />
        </mxCell>
        <mxCell id="4r5yGOIJ-KLtEA-MK6Sy-37" value="" style="group" vertex="1" connectable="0" parent="4r5yGOIJ-KLtEA-MK6Sy-39">
          <mxGeometry width="40" height="30" as="geometry" />
        </mxCell>
        <mxCell id="4r5yGOIJ-KLtEA-MK6Sy-36" value="" style="group" vertex="1" connectable="0" parent="4r5yGOIJ-KLtEA-MK6Sy-37">
          <mxGeometry width="40" height="30" as="geometry" />
        </mxCell>
        <mxCell id="4r5yGOIJ-KLtEA-MK6Sy-35" value="" style="group" vertex="1" connectable="0" parent="4r5yGOIJ-KLtEA-MK6Sy-36">
          <mxGeometry width="40" height="30" as="geometry" />
        </mxCell>
        <mxCell id="4r5yGOIJ-KLtEA-MK6Sy-15" value="" style="rounded=0;whiteSpace=wrap;html=1;fillColor=#bac8d3;fontSize=16;strokeColor=#23445d;" vertex="1" parent="4r5yGOIJ-KLtEA-MK6Sy-35">
          <mxGeometry width="40" height="30" as="geometry" />
        </mxCell>
        <mxCell id="4r5yGOIJ-KLtEA-MK6Sy-14" value="" style="shape=trapezoid;perimeter=trapezoidPerimeter;whiteSpace=wrap;html=1;fixedSize=1;fontSize=16;fillColor=#080808;size=7.142857142856883;" vertex="1" parent="4r5yGOIJ-KLtEA-MK6Sy-35">
          <mxGeometry x="2.8571428571428568" y="2.142857142857143" width="34.285714285714285" height="25.71428571428571" as="geometry" />
        </mxCell>
        <mxCell id="4r5yGOIJ-KLtEA-MK6Sy-16" value="" style="ellipse;whiteSpace=wrap;html=1;aspect=fixed;fontSize=16;" vertex="1" parent="4r5yGOIJ-KLtEA-MK6Sy-35">
          <mxGeometry x="10.857142857142856" y="7.7142857142857135" width="2.8571428571428568" height="2.8571428571428568" as="geometry" />
        </mxCell>
        <mxCell id="4r5yGOIJ-KLtEA-MK6Sy-18" value="" style="ellipse;whiteSpace=wrap;html=1;aspect=fixed;fontSize=16;" vertex="1" parent="4r5yGOIJ-KLtEA-MK6Sy-35">
          <mxGeometry x="18.57142857142857" y="7.7142857142857135" width="2.8571428571428568" height="2.8571428571428568" as="geometry" />
        </mxCell>
        <mxCell id="4r5yGOIJ-KLtEA-MK6Sy-20" value="" style="ellipse;whiteSpace=wrap;html=1;aspect=fixed;fontSize=16;" vertex="1" parent="4r5yGOIJ-KLtEA-MK6Sy-35">
          <mxGeometry x="26.285714285714285" y="7.7142857142857135" width="2.8571428571428568" height="2.8571428571428568" as="geometry" />
        </mxCell>
        <mxCell id="4r5yGOIJ-KLtEA-MK6Sy-21" value="" style="ellipse;whiteSpace=wrap;html=1;aspect=fixed;fontSize=16;" vertex="1" parent="4r5yGOIJ-KLtEA-MK6Sy-35">
          <mxGeometry x="6.571428571428571" y="14.142857142857142" width="2.8571428571428568" height="2.8571428571428568" as="geometry" />
        </mxCell>
        <mxCell id="4r5yGOIJ-KLtEA-MK6Sy-22" value="" style="ellipse;whiteSpace=wrap;html=1;aspect=fixed;fontSize=16;" vertex="1" parent="4r5yGOIJ-KLtEA-MK6Sy-35">
          <mxGeometry x="14.571428571428571" y="14.142857142857142" width="2.8571428571428568" height="2.8571428571428568" as="geometry" />
        </mxCell>
        <mxCell id="4r5yGOIJ-KLtEA-MK6Sy-24" value="" style="ellipse;whiteSpace=wrap;html=1;aspect=fixed;fontSize=16;" vertex="1" parent="4r5yGOIJ-KLtEA-MK6Sy-35">
          <mxGeometry x="22.285714285714285" y="14.142857142857142" width="2.8571428571428568" height="2.8571428571428568" as="geometry" />
        </mxCell>
        <mxCell id="4r5yGOIJ-KLtEA-MK6Sy-25" value="" style="ellipse;whiteSpace=wrap;html=1;aspect=fixed;fontSize=16;" vertex="1" parent="4r5yGOIJ-KLtEA-MK6Sy-35">
          <mxGeometry x="29.142857142857142" y="14.142857142857142" width="2.8571428571428568" height="2.8571428571428568" as="geometry" />
        </mxCell>
        <mxCell id="4r5yGOIJ-KLtEA-MK6Sy-26" value="" style="ellipse;whiteSpace=wrap;html=1;aspect=fixed;fontSize=16;" vertex="1" parent="4r5yGOIJ-KLtEA-MK6Sy-35">
          <mxGeometry x="10.571428571428571" y="20.57142857142857" width="2.8571428571428568" height="2.8571428571428568" as="geometry" />
        </mxCell>
        <mxCell id="4r5yGOIJ-KLtEA-MK6Sy-28" value="" style="ellipse;whiteSpace=wrap;html=1;aspect=fixed;fontSize=16;" vertex="1" parent="4r5yGOIJ-KLtEA-MK6Sy-35">
          <mxGeometry x="18.285714285714285" y="20.57142857142857" width="2.8571428571428568" height="2.8571428571428568" as="geometry" />
        </mxCell>
        <mxCell id="4r5yGOIJ-KLtEA-MK6Sy-30" value="" style="ellipse;whiteSpace=wrap;html=1;aspect=fixed;fontSize=16;" vertex="1" parent="4r5yGOIJ-KLtEA-MK6Sy-35">
          <mxGeometry x="26" y="20.57142857142857" width="2.8571428571428568" height="2.8571428571428568" as="geometry" />
        </mxCell>
        <mxCell id="4r5yGOIJ-KLtEA-MK6Sy-31" value="" style="ellipse;whiteSpace=wrap;html=1;aspect=fixed;fontSize=16;" vertex="1" parent="4r5yGOIJ-KLtEA-MK6Sy-35">
          <mxGeometry x="3.714285714285714" y="20.57142857142857" width="2.8571428571428568" height="2.8571428571428568" as="geometry" />
        </mxCell>
        <mxCell id="4r5yGOIJ-KLtEA-MK6Sy-32" value="" style="ellipse;whiteSpace=wrap;html=1;aspect=fixed;fontSize=16;" vertex="1" parent="4r5yGOIJ-KLtEA-MK6Sy-35">
          <mxGeometry x="32.57142857142857" y="20.57142857142857" width="2.8571428571428568" height="2.8571428571428568" as="geometry" />
        </mxCell>
        <mxCell id="4r5yGOIJ-KLtEA-MK6Sy-33" value="" style="ellipse;whiteSpace=wrap;html=1;aspect=fixed;fontSize=16;fillColor=#f5f5f5;strokeColor=#666666;gradientColor=#b3b3b3;" vertex="1" parent="4r5yGOIJ-KLtEA-MK6Sy-35">
          <mxGeometry y="11.571428571428571" width="4.571428571428571" height="4.571428571428571" as="geometry" />
        </mxCell>
        <mxCell id="4r5yGOIJ-KLtEA-MK6Sy-34" value="" style="ellipse;whiteSpace=wrap;html=1;aspect=fixed;fontSize=16;fillColor=#f5f5f5;strokeColor=#666666;gradientColor=#b3b3b3;" vertex="1" parent="4r5yGOIJ-KLtEA-MK6Sy-35">
          <mxGeometry x="35.14285714285714" y="11.142857142857142" width="4.571428571428571" height="4.571428571428571" as="geometry" />
        </mxCell>
        <mxCell id="4r5yGOIJ-KLtEA-MK6Sy-41" value="" style="edgeStyle=orthogonalEdgeStyle;rounded=0;orthogonalLoop=1;jettySize=auto;html=1;fontSize=16;strokeWidth=3;" edge="1" parent="1" source="4r5yGOIJ-KLtEA-MK6Sy-34" target="4r5yGOIJ-KLtEA-MK6Sy-5">
          <mxGeometry relative="1" as="geometry" />
        </mxCell>
      </root>
    </mxGraphModel>
  </diagram>
</mxfile>
